{
  "asset": {
    "version": "2.0",
    "generator": "THREE.GLTFExporter"
  },
  "scenes": [
    {
      "name": "Scene",
      "nodes": [
        4
      ]
    }
  ],
  "scene": 0,
  "nodes": [
    {
      "name": "group_0_2829873",
      "mesh": 0
    },
    {
      "name": "group_0_10988977",
      "mesh": 1
    },
    {
      "name": "group_0_15277357",
      "mesh": 2
    },
    {
      "name": "group_0_16448250",
      "mesh": 3
    },
    {
      "matrix": [
        4.4408920985006264e-17,
        4.4408920985006264e-17,
        -0.2,
        0,
        -0.2,
        0,
        -4.4408920985006264e-17,
        0,
        0,
        0.2,
        4.4408920985006264e-17,
        0,
        0,
        0,
        0,
        1
      ],
      "name": "tinker.obj",
      "children": [
        0,
        1,
        2,
        3
      ]
    }
  ],
  "bufferViews": [
    {
      "buffer": 0,
      "byteOffset": 0,
      "byteLength": 25488,
      "target": 34962,
      "byteStride": 12
    },
    {
      "buffer": 0,
      "byteOffset": 25488,
      "byteLength": 25488,
      "target": 34962,
      "byteStride": 12
    },
    {
      "buffer": 0,
      "byteOffset": 50976,
      "byteLength": 74592,
      "target": 34962,
      "byteStride": 12
    },
    {
      "buffer": 0,
      "byteOffset": 125568,
      "byteLength": 74592,
      "target": 34962,
      "byteStride": 12
    },
    {
      "buffer": 0,
      "byteOffset": 200160,
      "byteLength": 80460,
      "target": 34962,
      "byteStride": 12
    },
    {
      "buffer": 0,
      "byteOffset": 280620,
      "byteLength": 80460,
      "target": 34962,
      "byteStride": 12
    },
    {
      "buffer": 0,
      "byteOffset": 361080,
      "byteLength": 139140,
      "target": 34962,
      "byteStride": 12
    },
    {
      "buffer": 0,
      "byteOffset": 500220,
      "byteLength": 139140,
      "target": 34962,
      "byteStride": 12
    }
  ],
  "buffers": [
    {
      "byteLength": 639360,
      "uri": "data:application/octet-stream;base64,"
    }
  ],
  "accessors": [
    {
      "bufferView": 0,
      "componentType": 5126,
      "count": 2124,
      "max": [
        41,
        41.59000015258789,
        63
      ],
      "min": [
        -55.57500076293945,
        -24,
        0
      ],
      "type": "VEC3"
    },
    {
      "bufferView": 1,
      "componentType": 5126,
      "count": 2124,
      "max": [
        1,
        0.99761962890625,
        0.9993545413017273
      ],
      "min": [
        -0.9975717067718506,
        -0.9975634813308716,
        -0.9999812245368958
      ],
      "type": "VEC3"
    },
    {
      "bufferView": 2,
      "componentType": 5126,
      "count": 6216,
      "max": [
        41,
        36.00400161743164,
        57.400001525878906
      ],
      "min": [
        -55.185001373291016,
        -18.399999618530273,
        5.599999904632568
      ],
      "type": "VEC3"
    },
    {
      "bufferView": 3,
      "componentType": 5126,
      "count": 6216,
      "max": [
        1,
        0.9999988079071045,
        1
      ],
      "min": [
        -1,
        -0.9999806880950928,
        -1
      ],
      "type": "VEC3"
    },
    {
      "bufferView": 4,
      "componentType": 5126,
      "count": 6705,
      "max": [
        18.427099227905273,
        62.53409957885742,
        106.22599792480469
      ],
      "min": [
        -33.427101135253906,
        -8.865599632263184,
        61.19860076904297
      ],
      "type": "VEC3"
    },
    {
      "bufferView": 5,
      "componentType": 5126,
      "count": 6705,
      "max": [
        1,
        0.9867164492607117,
        1
      ],
      "min": [
        -0.9971721172332764,
        -0.9986689686775208,
        -0.6371866464614868
      ],
      "type": "VEC3"
    },
    {
      "bufferView": 6,
      "componentType": 5126,
      "count": 11595,
      "max": [
        32,
        75,
        108.99500274658203
      ],
      "min": [
        -47,
        -71,
        0
      ],
      "type": "VEC3"
    },
    {
      "bufferView": 7,
      "componentType": 5126,
      "count": 11595,
      "max": [
        1,
        0.998917281627655,
        1
      ],
      "min": [
        -0.9997789263725281,
        -0.9996439218521118,
        -1
      ],
      "type": "VEC3"
    }
  ],
  "materials": [
    {
      "pbrMetallicRoughness": {
        "metallicFactor": 0.5,
        "roughnessFactor": 0.5
      },
      "name": "color_2829873"
    },
    {
      "pbrMetallicRoughness": {
        "metallicFactor": 0.5,
        "roughnessFactor": 0.5
      },
      "name": "color_10988977"
    },
    {
      "pbrMetallicRoughness": {
        "metallicFactor": 0.5,
        "roughnessFactor": 0.5
      },
      "name": "color_15277357"
    },
    {
      "pbrMetallicRoughness": {
        "metallicFactor": 0.5,
        "roughnessFactor": 0.5
      },
      "name": "color_16448250"
    }
  ],
  "meshes": [
    {
      "primitives": [
        {
          "mode": 4,
          "attributes": {
            "POSITION": 0,
            "NORMAL": 1
          },
          "material": 0
        }
      ]
    },
    {
      "primitives": [
        {
          "mode": 4,
          "attributes": {
            "POSITION": 2,
            "NORMAL": 3
          },
          "material": 1
        }
      ]
    },
    {
      "primitives": [
        {
          "mode": 4,
          "attributes": {
            "POSITION": 4,
            "NORMAL": 5
          },
          "material": 2
        }
      ]
    },
    {
      "primitives": [
        {
          "mode": 4,
          "attributes": {
            "POSITION": 6,
            "NORMAL": 7
          },
          "material": 3
        }
      ]
    }
  ]
}